<svg xmlns="http://www.w3.org/2000/svg" xmlns:xlink="http://www.w3.org/1999/xlink" width="1920" zoomAndPan="magnify" viewBox="0 0 1440 809.999993" height="1080" preserveAspectRatio="xMidYMid meet" version="1.0"><defs><clipPath id="198f1217ce"><path d="M 364.324219 10 L 1075.324219 10 L 1075.324219 809 L 364.324219 809 Z M 364.324219 10 " clip-rule="nonzero"/></clipPath></defs><g clip-path="url(#198f1217ce)"><path fill="#a3adae" d="M 1047.878906 133.046875 L 1024.539062 133.046875 C 1023.425781 133.046875 1021.203125 134.160156 1020.09375 134.160156 L 1020.09375 86.367188 C 1020.09375 45.242188 986.75 10.785156 944.511719 10.785156 L 493.257812 10.785156 C 452.132812 10.785156 417.675781 44.128906 417.675781 86.367188 L 417.675781 134.160156 C 416.566406 134.160156 414.34375 133.046875 413.230469 133.046875 L 389.890625 133.046875 C 376.550781 133.046875 364.324219 144.164062 364.324219 158.613281 L 364.324219 295.320312 C 364.324219 308.660156 375.441406 320.886719 389.890625 320.886719 L 413.230469 320.886719 C 414.34375 320.886719 416.566406 319.773438 417.675781 319.773438 L 417.675781 619.871094 C 417.675781 655.4375 442.128906 684.335938 475.472656 693.226562 L 475.472656 783.257812 C 475.472656 796.59375 486.585938 808.820312 501.035156 808.820312 L 585.507812 808.820312 C 598.84375 808.820312 611.070312 797.707031 611.070312 783.257812 L 611.070312 695.449219 L 828.917969 695.449219 L 828.917969 783.257812 C 828.917969 796.59375 840.035156 808.820312 854.484375 808.820312 L 938.953125 808.820312 C 952.292969 808.820312 964.519531 797.707031 964.519531 783.257812 L 964.519531 693.226562 C 996.75 685.449219 1022.316406 655.4375 1022.316406 619.871094 L 1022.316406 319.773438 C 1023.425781 319.773438 1025.648438 320.886719 1026.761719 320.886719 L 1050.101562 320.886719 C 1063.441406 320.886719 1075.664062 309.769531 1075.664062 295.320312 L 1075.664062 157.5 C 1073.441406 144.164062 1061.214844 133.046875 1047.878906 133.046875 Z M 517.707031 48.574219 L 921.171875 48.574219 L 921.171875 71.917969 L 517.707031 71.917969 Z M 522.15625 648.769531 C 496.589844 648.769531 476.585938 628.761719 476.585938 603.199219 C 476.585938 577.636719 496.589844 557.628906 522.15625 557.628906 C 547.71875 557.628906 567.722656 577.636719 567.722656 603.199219 C 567.722656 627.652344 546.605469 648.769531 522.15625 648.769531 Z M 915.613281 648.769531 C 890.050781 648.769531 870.042969 628.761719 870.042969 603.199219 C 870.042969 577.636719 890.050781 557.628906 915.613281 557.628906 C 941.179688 557.628906 961.183594 577.636719 961.183594 603.199219 C 961.183594 627.652344 941.179688 648.769531 915.613281 648.769531 Z M 988.972656 475.378906 L 448.796875 475.378906 L 448.796875 124.15625 L 988.972656 124.15625 Z M 988.972656 475.378906 " fill-opacity="1" fill-rule="nonzero"/></g></svg>