<svg xmlns="http://www.w3.org/2000/svg" xmlns:xlink="http://www.w3.org/1999/xlink" width="1920" zoomAndPan="magnify" viewBox="0 0 1440 809.999993" height="1080" preserveAspectRatio="xMidYMid meet" version="1.0"><defs><clipPath id="ec4a8b3098"><path d="M 544 71.308594 L 891 71.308594 L 891 418 L 544 418 Z M 544 71.308594 " clip-rule="nonzero"/></clipPath><clipPath id="6c6b25af86"><path d="M 446 445 L 988 445 L 988 738.808594 L 446 738.808594 Z M 446 445 " clip-rule="nonzero"/></clipPath></defs><path fill="#404962" d="M 185.800781 646.53125 L 387.863281 646.53125 C 395.828125 646.53125 402.285156 640.132812 402.285156 632.132812 L 402.285156 611.925781 C 402.285156 551.894531 430.121094 498.328125 473.5625 463.484375 C 481.847656 456.84375 481.023438 443.691406 471.417969 439.1875 C 449.921875 429.113281 425.964844 423.484375 400.738281 423.484375 L 323.4375 423.484375 C 230.992188 423.484375 156.054688 498.445312 156.054688 590.890625 L 156.054688 616.84375 C 156.054688 633.257812 169.375 646.53125 185.800781 646.53125 " fill-opacity="1" fill-rule="nonzero"/><path fill="#404962" d="M 230.179688 270.28125 C 230.179688 343.132812 289.234375 402.195312 362.085938 402.195312 C 434.941406 402.195312 493.996094 343.132812 493.996094 270.28125 C 493.996094 197.429688 434.941406 138.371094 362.085938 138.371094 C 289.234375 138.371094 230.179688 197.429688 230.179688 270.28125 " fill-opacity="1" fill-rule="nonzero"/><path fill="#404962" d="M 1116.558594 423.484375 L 1039.105469 423.484375 C 1012.796875 423.484375 987.789062 429.644531 965.625 440.550781 C 956.085938 445.230469 954.484375 458.03125 962.78125 464.785156 C 1005.328125 499.628906 1032.527344 552.609375 1032.527344 611.925781 L 1032.527344 632.132812 C 1032.527344 640.132812 1038.988281 646.53125 1046.929688 646.53125 L 1254.214844 646.53125 C 1270.628906 646.53125 1283.960938 633.257812 1283.960938 616.84375 L 1283.960938 590.890625 C 1283.960938 498.445312 1209 423.484375 1116.558594 423.484375 " fill-opacity="1" fill-rule="nonzero"/><path fill="#404962" d="M 1077.859375 138.371094 C 1005.03125 138.371094 945.953125 197.433594 945.953125 270.28125 C 945.953125 343.132812 1005.03125 402.191406 1077.859375 402.191406 C 1150.75 402.191406 1209.769531 343.132812 1209.769531 270.28125 C 1209.769531 197.433594 1150.75 138.371094 1077.859375 138.371094 " fill-opacity="1" fill-rule="nonzero"/><g clip-path="url(#ec4a8b3098)"><path fill="#404962" d="M 717.402344 417.734375 C 813.09375 417.734375 890.605469 340.199219 890.605469 244.539062 C 890.605469 148.878906 813.09375 71.332031 717.402344 71.332031 C 621.742188 71.332031 544.191406 148.878906 544.191406 244.539062 C 544.191406 340.199219 621.742188 417.734375 717.402344 417.734375 " fill-opacity="1" fill-rule="nonzero"/></g><g clip-path="url(#6c6b25af86)"><path fill="#404962" d="M 446.828125 631.539062 L 446.828125 737.199219 C 446.828125 738.027344 447.46875 738.679688 448.253906 738.679688 L 986.542969 738.679688 C 987.3125 738.679688 987.964844 738.027344 987.964844 737.199219 L 987.964844 631.539062 C 987.964844 528.964844 904.765625 445.765625 802.191406 445.765625 L 632.640625 445.765625 C 530.019531 445.765625 446.828125 528.964844 446.828125 631.539062 " fill-opacity="1" fill-rule="nonzero"/></g></svg>