<svg xmlns="http://www.w3.org/2000/svg" xmlns:xlink="http://www.w3.org/1999/xlink" width="1920" zoomAndPan="magnify" viewBox="0 0 1440 809.999993" height="1080" preserveAspectRatio="xMidYMid meet" version="1.0"><defs><clipPath id="b0a7da8fb1"><path d="M 287 362 L 804 362 L 804 448 L 287 448 Z M 287 362 " clip-rule="nonzero"/></clipPath><clipPath id="2b192f21c8"><path d="M 240.160156 28.964844 L 240.160156 781.035156 C 240.160156 788.074219 245.871094 793.785156 252.910156 793.785156 L 1091.375 793.785156 C 1098.417969 793.785156 1104.125 788.074219 1104.125 781.035156 L 1104.125 28.964844 C 1104.125 21.925781 1098.417969 16.214844 1091.375 16.214844 L 252.910156 16.214844 C 245.871094 16.214844 240.160156 21.925781 240.160156 28.964844 Z M 240.160156 28.964844 " clip-rule="nonzero"/></clipPath><clipPath id="4f8d534650"><path d="M 244 224 L 469 224 L 469 586 L 244 586 Z M 244 224 " clip-rule="nonzero"/></clipPath><clipPath id="ddc6192ced"><path d="M 240.160156 28.964844 L 240.160156 781.035156 C 240.160156 788.074219 245.871094 793.785156 252.910156 793.785156 L 1091.375 793.785156 C 1098.417969 793.785156 1104.125 788.074219 1104.125 781.035156 L 1104.125 28.964844 C 1104.125 21.925781 1098.417969 16.214844 1091.375 16.214844 L 252.910156 16.214844 C 245.871094 16.214844 240.160156 21.925781 240.160156 28.964844 Z M 240.160156 28.964844 " clip-rule="nonzero"/></clipPath><clipPath id="e6334020b8"><path d="M 502 18 L 1104.160156 18 L 1104.160156 792 L 502 792 Z M 502 18 " clip-rule="nonzero"/></clipPath><clipPath id="e225274f3c"><path d="M 240.160156 28.964844 L 240.160156 781.035156 C 240.160156 788.074219 245.871094 793.785156 252.910156 793.785156 L 1091.375 793.785156 C 1098.417969 793.785156 1104.125 788.074219 1104.125 781.035156 L 1104.125 28.964844 C 1104.125 21.925781 1098.417969 16.214844 1091.375 16.214844 L 252.910156 16.214844 C 245.871094 16.214844 240.160156 21.925781 240.160156 28.964844 Z M 240.160156 28.964844 " clip-rule="nonzero"/></clipPath></defs><g clip-path="url(#b0a7da8fb1)"><g clip-path="url(#2b192f21c8)"><path fill="#404962" d="M 287.441406 362.015625 L 803.234375 362.015625 L 803.234375 447.980469 L 287.441406 447.980469 Z M 287.441406 362.015625 " fill-opacity="1" fill-rule="evenodd"/></g></g><g clip-path="url(#4f8d534650)"><g clip-path="url(#ddc6192ced)"><path fill="#404962" d="M 407.484375 224.164062 L 257.046875 374.605469 C 240.261719 391.390625 240.261719 418.605469 257.046875 435.390625 L 407.484375 585.832031 L 468.273438 525.042969 L 348.226562 404.996094 L 468.273438 284.953125 Z M 407.484375 224.164062 " fill-opacity="1" fill-rule="evenodd"/></g></g><g clip-path="url(#e6334020b8)"><g clip-path="url(#e225274f3c)"><path fill="#404962" d="M 502.355469 61.136719 C 502.355469 37.398438 521.601562 18.152344 545.339844 18.152344 L 1061.132812 18.152344 C 1084.871094 18.152344 1104.113281 37.398438 1104.113281 61.136719 L 1104.113281 748.859375 C 1104.113281 772.597656 1084.871094 791.84375 1061.132812 791.84375 L 545.339844 791.84375 C 521.601562 791.84375 502.355469 772.597656 502.355469 748.859375 L 502.355469 619.910156 L 588.320312 619.910156 L 588.320312 705.875 L 1018.148438 705.875 L 1018.148438 104.117188 L 588.320312 104.117188 L 588.320312 190.082031 L 502.355469 190.082031 Z M 502.355469 61.136719 " fill-opacity="1" fill-rule="evenodd"/></g></g></svg>