<svg xmlns="http://www.w3.org/2000/svg" xmlns:xlink="http://www.w3.org/1999/xlink" width="1920" zoomAndPan="magnify" viewBox="0 0 1440 809.999993" height="1080" preserveAspectRatio="xMidYMid meet" version="1.0"><defs><clipPath id="7c92576e7c"><path d="M 373 208 L 1016 208 L 1016 788.890625 L 373 788.890625 Z M 373 208 " clip-rule="nonzero"/></clipPath></defs><path fill="#2963b5" d="M 1080.550781 290.703125 L 950.4375 194.992188 L 950.4375 80.824219 C 950.4375 62.925781 935.910156 48.449219 918.035156 48.449219 L 865.375 48.449219 C 847.476562 48.449219 832.972656 62.953125 832.972656 80.824219 L 832.972656 108.5625 L 733.765625 35.59375 C 712.242188 19.722656 677 19.722656 655.476562 35.59375 L 308.691406 290.703125 C 287.164062 306.546875 282.523438 337.148438 298.371094 358.699219 L 307.953125 371.707031 C 323.773438 393.257812 354.375 397.921875 375.875 382.074219 L 655.476562 176.308594 C 677 160.460938 712.242188 160.460938 733.765625 176.308594 L 1013.339844 382.074219 C 1034.863281 397.921875 1065.441406 393.230469 1081.261719 371.707031 L 1090.871094 358.699219 C 1106.691406 337.148438 1102.050781 306.546875 1080.550781 290.703125 Z M 1080.550781 290.703125 " fill-opacity="1" fill-rule="nonzero"/><g clip-path="url(#7c92576e7c)"><path fill="#2963b5" d="M 976.804688 399.976562 L 733.691406 220.296875 C 712.191406 204.398438 677.050781 204.398438 655.550781 220.296875 L 412.4375 399.976562 C 390.9375 415.871094 373.339844 439.121094 373.339844 451.722656 L 373.339844 712.230469 C 373.339844 754.519531 409.597656 788.820312 454.34375 788.820312 L 602.816406 788.820312 L 602.816406 558.382812 C 602.816406 540.585938 617.394531 526.03125 635.191406 526.03125 L 754 526.03125 C 771.796875 526.03125 786.375 540.585938 786.375 558.382812 L 786.375 788.820312 L 934.871094 788.820312 C 979.59375 788.820312 1015.824219 754.519531 1015.824219 712.230469 L 1015.824219 451.722656 C 1015.847656 439.121094 998.304688 415.871094 976.804688 399.976562 Z M 976.804688 399.976562 " fill-opacity="1" fill-rule="nonzero"/></g></svg>