<svg xmlns="http://www.w3.org/2000/svg" xmlns:xlink="http://www.w3.org/1999/xlink" width="1920" zoomAndPan="magnify" viewBox="0 0 1440 809.999993" height="1080" preserveAspectRatio="xMidYMid meet" version="1.0"><path fill="#ffffff" d="M 464.195312 515.589844 L 284.679688 695.082031 C 262.15625 717.632812 262.15625 754.179688 284.679688 776.707031 C 307.207031 799.207031 343.753906 799.207031 366.277344 776.707031 L 545.792969 597.191406 Z M 464.195312 515.589844 " fill-opacity="1" fill-rule="nonzero"/><path fill="#ffffff" d="M 969.175781 92.210938 C 861.953125 -14.992188 687.515625 -14.992188 580.339844 92.210938 C 482.714844 189.761719 474.261719 342.867188 554.296875 450.507812 L 500.378906 504.402344 L 557.007812 560.984375 L 610.925781 507.066406 C 718.46875 587.125 871.601562 578.671875 969.175781 481.070312 C 1076.402344 373.871094 1076.402344 199.433594 969.175781 92.210938 Z M 928.230469 440.125 C 843.578125 524.800781 705.863281 524.800781 621.238281 440.125 C 536.585938 355.496094 536.585938 217.78125 621.238281 133.128906 C 705.886719 48.503906 843.605469 48.503906 928.230469 133.128906 C 1012.882812 217.808594 1012.882812 355.496094 928.230469 440.125 Z M 928.230469 440.125 " fill-opacity="1" fill-rule="nonzero"/><path fill="#ffffff" d="M 883.574219 121.402344 C 817.585938 77.867188 732.226562 77.769531 666.1875 121.257812 C 659.519531 125.679688 657.636719 134.644531 662.035156 141.289062 C 662.597656 142.121094 663.234375 142.902344 663.890625 143.5625 C 668.65625 148.324219 676.253906 149.253906 682.070312 145.417969 C 738.480469 108.332031 811.28125 108.382812 867.644531 145.566406 C 874.3125 150.011719 883.304688 148.128906 887.675781 141.484375 C 892.050781 134.839844 890.289062 125.851562 883.574219 121.402344 Z M 883.574219 121.402344 " fill-opacity="1" fill-rule="nonzero"/></svg>