<svg xmlns="http://www.w3.org/2000/svg" xmlns:xlink="http://www.w3.org/1999/xlink" width="1920" zoomAndPan="magnify" viewBox="0 0 1440 809.999993" height="1080" preserveAspectRatio="xMidYMid meet" version="1.0"><defs><clipPath id="761324fee6"><path d="M 367 117 L 1134 117 L 1134 801.472656 L 367 801.472656 Z M 367 117 " clip-rule="nonzero"/></clipPath></defs><g clip-path="url(#761324fee6)"><path fill="#0e2247" d="M 508.113281 674.917969 C 499.660156 680.484375 497.320312 691.847656 502.878906 700.300781 L 563.929688 793.035156 C 566.605469 797.097656 570.78125 799.929688 575.542969 800.910156 C 576.769531 801.164062 578.003906 801.289062 579.238281 801.289062 C 582.789062 801.289062 586.296875 800.253906 589.3125 798.265625 L 1125.066406 445.558594 C 1129.128906 442.886719 1131.957031 438.707031 1132.941406 433.945312 C 1133.917969 429.1875 1132.96875 424.230469 1130.300781 420.175781 L 1069.246094 327.433594 C 1066.570312 323.371094 1062.390625 320.539062 1057.628906 319.558594 C 1052.878906 318.597656 1047.921875 319.527344 1043.859375 322.203125 C 1036.171875 327.265625 1027.265625 329.9375 1018.121094 329.9375 C 1002.246094 329.9375 987.570312 322.042969 978.863281 308.808594 C 964.632812 287.195312 970.636719 258.039062 992.25 243.8125 C 996.3125 241.140625 999.140625 236.964844 1000.125 232.207031 C 1001.101562 227.441406 1000.152344 222.488281 997.488281 218.429688 L 936.429688 125.695312 C 930.859375 117.238281 919.503906 114.890625 911.039062 120.460938 L 375.296875 473.171875 C 366.839844 478.738281 364.496094 490.105469 370.0625 498.554688 L 431.113281 591.292969 C 433.785156 595.355469 437.964844 598.1875 442.726562 599.171875 C 447.480469 600.140625 452.4375 599.199219 456.5 596.527344 C 464.195312 591.464844 473.097656 588.785156 482.242188 588.785156 C 498.121094 588.785156 512.792969 596.683594 521.503906 609.914062 C 535.730469 631.523438 529.726562 660.6875 508.113281 674.917969 Z M 482.242188 552.132812 C 472.105469 552.132812 462.136719 553.96875 452.765625 557.519531 L 410.761719 493.710938 L 784.148438 247.886719 L 789.183594 255.542969 C 791.824219 259.554688 796.207031 261.730469 800.675781 261.730469 C 803.269531 261.730469 805.890625 260.996094 808.226562 259.464844 C 814.5625 255.289062 816.316406 246.765625 812.144531 240.425781 L 807.105469 232.773438 L 915.886719 161.152344 L 957.902344 224.96875 C 931.351562 252.472656 926.367188 295.730469 948.234375 328.96875 C 963.753906 352.53125 989.871094 366.59375 1018.117188 366.59375 C 1028.253906 366.59375 1038.214844 364.761719 1047.59375 361.210938 L 1089.597656 425.019531 L 980.816406 496.636719 L 975.78125 488.984375 C 971.609375 482.640625 963.097656 480.90625 956.738281 485.0625 C 950.402344 489.238281 948.648438 497.761719 952.816406 504.101562 L 957.855469 511.753906 L 584.460938 757.574219 L 542.457031 693.765625 C 569.007812 666.253906 573.992188 623 552.109375 589.757812 C 536.605469 566.199219 510.484375 552.132812 482.242188 552.132812 Z M 482.242188 552.132812 " fill-opacity="1" fill-rule="nonzero"/></g><path fill="#0e2247" d="M 920.09375 454.390625 C 922.734375 458.398438 927.121094 460.570312 931.585938 460.570312 C 934.183594 460.570312 936.8125 459.835938 939.136719 458.304688 C 945.476562 454.128906 947.230469 445.601562 943.058594 439.261719 L 910.324219 389.550781 C 906.152344 383.214844 897.617188 381.480469 891.28125 385.632812 C 884.945312 389.808594 883.191406 398.335938 887.359375 404.675781 Z M 920.09375 454.390625 " fill-opacity="1" fill-rule="nonzero"/><path fill="#0e2247" d="M 854.636719 354.957031 C 857.273438 358.972656 861.660156 361.148438 866.125 361.148438 C 868.722656 361.148438 871.34375 360.414062 873.679688 358.882812 C 880.015625 354.707031 881.769531 346.183594 877.597656 339.84375 L 844.875 290.132812 C 840.703125 283.789062 832.191406 282.054688 825.832031 286.210938 C 819.496094 290.386719 817.742188 298.90625 821.910156 305.246094 Z M 854.636719 354.957031 " fill-opacity="1" fill-rule="nonzero"/><path fill="#0e2247" d="M 766.238281 95.695312 C 771.414062 87.003906 768.566406 75.753906 759.867188 70.578125 L 664.476562 13.777344 C 655.8125 8.628906 644.644531 11.429688 639.429688 20.019531 C 638.015625 22.355469 497.027344 254.910156 415.128906 392.453125 C 409.953125 401.144531 412.804688 412.394531 421.5 417.570312 C 424.445312 419.324219 427.675781 420.15625 430.859375 420.15625 C 437.105469 420.15625 443.203125 416.957031 446.628906 411.203125 C 484.855469 347 535.960938 262.085938 579.734375 189.558594 L 585.183594 192.804688 C 587.394531 194.113281 589.8125 194.734375 592.207031 194.734375 C 596.886719 194.734375 601.453125 192.339844 604.03125 188.023438 C 607.914062 181.5 605.773438 173.0625 599.25 169.179688 L 593.945312 166.023438 C 623.609375 116.902344 648.488281 75.804688 661.34375 54.578125 L 727.089844 93.726562 C 722.390625 107.996094 721.789062 123.269531 725.199219 138.222656 C 725.214844 138.371094 725.257812 138.519531 725.28125 138.671875 C 725.4375 139.335938 725.480469 140.007812 725.648438 140.671875 C 725.703125 140.886719 725.816406 141.074219 725.878906 141.285156 C 725.941406 141.503906 725.953125 141.71875 726.027344 141.933594 C 734.464844 166.933594 751.25 184.527344 773.300781 191.476562 C 775.136719 192.0625 776.988281 192.332031 778.820312 192.332031 C 786.605469 192.332031 793.828125 187.328125 796.289062 179.515625 C 799.332031 169.859375 793.980469 159.566406 784.324219 156.523438 C 773.929688 153.246094 765.710938 144.171875 761.058594 130.984375 C 758.066406 118.90625 759.863281 106.398438 766.238281 95.695312 Z M 766.238281 95.695312 " fill-opacity="1" fill-rule="nonzero"/><path fill="#0e2247" d="M 363.207031 516.386719 C 354.488281 511.199219 343.25 514.0625 338.078125 522.753906 C 325.636719 543.652344 311.292969 570.988281 310.695312 572.140625 C 306.175781 580.761719 309.191406 591.410156 317.546875 596.390625 L 412.953125 653.199219 C 415.816406 654.902344 419.054688 655.777344 422.328125 655.777344 C 423.839844 655.777344 425.351562 655.589844 426.839844 655.214844 C 431.554688 654.015625 435.601562 650.996094 438.089844 646.816406 C 440.128906 643.378906 442.582031 640.234375 445.390625 637.460938 C 452.585938 630.339844 452.640625 618.734375 445.523438 611.539062 C 438.402344 604.347656 426.8125 604.292969 419.601562 611.402344 C 418.957031 612.046875 418.324219 612.699219 417.695312 613.363281 L 351.34375 573.855469 C 356.515625 564.320312 363.378906 551.917969 369.578125 541.507812 C 374.75 532.8125 371.90625 521.5625 363.207031 516.386719 Z M 363.207031 516.386719 " fill-opacity="1" fill-rule="nonzero"/><path fill="#0e2247" d="M 636.914062 191.605469 L 622.542969 215.039062 C 622.542969 215.039062 653.960938 234.296875 659.855469 237.8125 C 662.066406 239.121094 664.484375 239.742188 666.878906 239.742188 C 671.558594 239.742188 676.132812 237.347656 678.703125 233.027344 C 682.585938 226.503906 680.449219 218.070312 673.925781 214.183594 C 668.0625 210.703125 636.914062 191.609375 636.914062 191.605469 Z M 636.914062 191.605469 " fill-opacity="1" fill-rule="nonzero"/></svg>